<?xml version="1.0" encoding="UTF-8" standalone="no"?>
<!DOCTYPE svg PUBLIC "-//W3C//DTD SVG 1.1//EN" "http://www.w3.org/Graphics/SVG/1.1/DTD/svg11.dtd">
<svg width="100%" height="100%" viewBox="0 0 115 103" version="1.1" xmlns="http://www.w3.org/2000/svg" xmlns:xlink="http://www.w3.org/1999/xlink" xml:space="preserve" xmlns:serif="http://www.serif.com/" style="fill-rule:evenodd;clip-rule:evenodd;stroke-linejoin:round;stroke-miterlimit:2;">
    <g transform="matrix(1,0,0,1,-1672.53,-135.616)">
        <rect id="Artboard1" x="0" y="0" width="1920" height="1080" style="fill:none;"/>
        <g id="Artboard11" serif:id="Artboard1">
            <g id="Layer1">
                <g transform="matrix(1,0,0,1,1009.76,-667.967)">
                    <path d="M795.97,743.175C805.505,743.175 814.65,746.963 821.392,753.705C828.135,760.447 831.923,769.592 831.923,779.127L831.923,930.79C831.923,940.326 828.135,949.47 821.392,956.213C814.65,962.955 805.505,966.743 795.97,966.743L644.307,966.743C634.772,966.743 625.627,962.955 618.885,956.213C612.142,949.47 608.354,940.326 608.354,930.79L608.354,779.127C608.354,769.592 612.142,760.447 618.885,753.705C625.627,746.963 634.772,743.175 644.307,743.175L795.97,743.175Z" style="fill:rgb(239,236,230);"/>
                </g>
                <g transform="matrix(1.82814,0,0,1.82814,1311.02,-856.202)">
                    <path d="M212.659,554.836L212.659,554.832C213.839,547.705 220.017,542.529 227.476,542.529C235.775,542.529 242.513,549.266 242.513,557.565C242.513,563.791 238.721,569.139 233.323,571.422C230.688,572.536 227.349,572.738 223.848,572.228C222.365,572.012 219.637,571.228 216.54,570.956C213.496,570.689 210.089,570.917 207.183,572.718C204.563,574.342 203.022,577.201 202.43,579.723C200.773,586.782 204.35,592.03 208.836,593.761C217.33,597.039 226.573,591.979 226.103,583.227C224.286,584.004 222.611,584.504 221.145,584.712C218.756,585.05 216.616,584.304 215.176,583.138C214.194,582.343 213.538,581.352 213.332,580.374C212.933,578.491 213.195,577.075 213.76,576.013C215.082,573.532 218.105,572.971 218.552,572.907C222.166,572.391 225.035,573.666 225.969,574.203C227.633,575.159 228.576,576.531 229.002,577.31C231.468,576.137 233.041,574.773 235.037,572.874C238.752,569.34 242.717,568.288 246.682,568.682C254.938,569.503 260.508,575.4 260.508,583.697C260.508,591.996 253.77,598.734 245.473,598.734C245.473,598.734 242.06,598.757 238.41,597.501C235.957,596.657 233.402,595.235 231.686,592.857C231.592,592.726 231.618,592.545 231.744,592.446C231.744,592.446 234.04,590.635 234.523,590.291C234.577,590.252 234.616,590.228 234.635,590.218L234.717,590.187L234.779,590.18L234.853,590.188L234.968,590.242C236.44,591.376 238.45,594.341 245.29,594.643C252.067,594.64 256.566,589.819 256.566,583.697C256.566,577.573 251.63,572.499 245.506,572.499C242.984,572.499 240.455,572.824 237.481,575.798C235.519,577.76 232.904,579.572 230.042,581.229C230.507,585.034 229.532,590.517 225.656,594.33C223.031,596.911 219.076,598.734 213.326,598.734C207.472,598.734 202.186,595.778 199.537,590.821C197.774,587.523 197.176,583.336 198.368,578.538C200.201,571.161 205.924,568.165 209.279,567.238C215.533,565.509 220.807,567.618 225.102,568.179C230.144,568.718 232.889,567.79 234.659,566.021C234.68,566 234.703,565.982 234.725,565.963C237.08,563.927 238.571,560.919 238.571,557.565C238.571,551.442 233.6,546.47 227.476,546.47C222.46,546.47 217.73,549.612 216.759,554.287C215.252,561.542 219.852,565.034 219.852,565.034C219.959,565.115 220,565.258 219.95,565.383C219.901,565.508 219.774,565.585 219.64,565.571L215.577,565.146C215.504,565.139 215.436,565.104 215.386,565.05C211.647,560.945 212.632,554.993 212.659,554.836ZM225.507,579.189C224.966,578.394 223.024,576.32 219.123,576.808C218.926,576.833 217.855,577.03 217.392,577.9C217.194,578.273 217.115,578.77 217.254,579.426C217.467,580.432 218.609,580.929 219.77,580.885C221.372,580.825 223.327,580.226 225.507,579.189Z" style="fill:rgb(22,26,46);"/>
                </g>
            </g>
        </g>
    </g>
</svg>
