<?xml version="1.0" encoding="UTF-8" standalone="no"?>
<svg
   width="114.73532"
   height="102.75066"
   viewBox="0 0 114.73532 102.75066"
   version="1.1"
   xml:space="preserve"
   style="clip-rule:evenodd;fill-rule:evenodd;stroke-linejoin:round;stroke-miterlimit:2"
   id="svg3"
   sodipodi:docname="sophos_web.svg"
   inkscape:version="1.4 (86a8ad7, 2024-10-11)"
   xmlns:inkscape="http://www.inkscape.org/namespaces/inkscape"
   xmlns:sodipodi="http://sodipodi.sourceforge.net/DTD/sodipodi-0.dtd"
   xmlns="http://www.w3.org/2000/svg"
   xmlns:svg="http://www.w3.org/2000/svg"
   xmlns:serif="http://www.serif.com/"><defs
   id="defs3" /><sodipodi:namedview
   id="namedview3"
   pagecolor="#757775"
   bordercolor="#000000"
   borderopacity="0"
   inkscape:showpageshadow="false"
   inkscape:pageopacity="0.0"
   inkscape:pagecheckerboard="0"
   inkscape:deskcolor="#d1d1d1"
   inkscape:zoom="2.6533667"
   inkscape:cx="-2.2612781"
   inkscape:cy="79.710053"
   inkscape:window-width="1920"
   inkscape:window-height="991"
   inkscape:window-x="2391"
   inkscape:window-y="-9"
   inkscape:window-maximized="1"
   inkscape:current-layer="g3"
   showborder="false"
   inkscape:antialias-rendering="true"
   borderlayer="false"><inkscape:page
     x="0"
     y="0"
     width="114.73532"
     height="102.75066"
     id="page2"
     margin="0"
     bleed="0" /></sodipodi:namedview>
    <g
   transform="translate(-1673.6604,-135.61697)"
   id="g3">
        
        <g
   id="Artboard11"
   serif:id="Artboard1"
   transform="translate(182.40977,9.421992)">
            <g
   id="Layer1"
   transform="translate(-181.27913,-9.421992)">
                
                <g
   transform="matrix(1.82814,0,0,1.82814,1311.02,-856.202)"
   id="g2">
                    <path
   d="m 212.659,554.836 v -0.004 c 1.18,-7.127 7.358,-12.303 14.817,-12.303 8.299,0 15.037,6.737 15.037,15.036 0,6.226 -3.792,11.574 -9.19,13.857 -2.635,1.114 -5.974,1.316 -9.475,0.806 -1.483,-0.216 -4.211,-1 -7.308,-1.272 -3.044,-0.267 -6.451,-0.039 -9.357,1.762 -2.62,1.624 -4.161,4.483 -4.753,7.005 -1.657,7.059 1.92,12.307 6.406,14.038 8.494,3.278 17.737,-1.782 17.267,-10.534 -1.817,0.777 -3.492,1.277 -4.958,1.485 -2.389,0.338 -4.529,-0.408 -5.969,-1.574 -0.982,-0.795 -1.638,-1.786 -1.844,-2.764 -0.399,-1.883 -0.137,-3.299 0.428,-4.361 1.322,-2.481 4.345,-3.042 4.792,-3.106 3.614,-0.516 6.483,0.759 7.417,1.296 1.664,0.956 2.607,2.328 3.033,3.107 2.466,-1.173 4.039,-2.537 6.035,-4.436 3.715,-3.534 7.68,-4.586 11.645,-4.192 8.256,0.821 13.826,6.718 13.826,15.015 0,8.299 -6.738,15.037 -15.035,15.037 0,0 -3.413,0.023 -7.063,-1.233 -2.453,-0.844 -5.008,-2.266 -6.724,-4.644 -0.094,-0.131 -0.068,-0.312 0.058,-0.411 0,0 2.296,-1.811 2.779,-2.155 0.054,-0.039 0.093,-0.063 0.112,-0.073 l 0.082,-0.031 0.062,-0.007 0.074,0.008 0.115,0.054 c 1.472,1.134 3.482,4.099 10.322,4.401 6.777,-0.003 11.276,-4.824 11.276,-10.946 0,-6.124 -4.936,-11.198 -11.06,-11.198 -2.522,0 -5.051,0.325 -8.025,3.299 -1.962,1.962 -4.577,3.774 -7.439,5.431 0.465,3.805 -0.51,9.288 -4.386,13.101 -2.625,2.581 -6.58,4.404 -12.33,4.404 -5.854,0 -11.14,-2.956 -13.789,-7.913 -1.763,-3.298 -2.361,-7.485 -1.169,-12.283 1.833,-7.377 7.556,-10.373 10.911,-11.3 6.254,-1.729 11.528,0.38 15.823,0.941 5.042,0.539 7.787,-0.389 9.557,-2.158 0.021,-0.021 0.044,-0.039 0.066,-0.058 2.355,-2.036 3.846,-5.044 3.846,-8.398 0,-6.123 -4.971,-11.095 -11.095,-11.095 -5.016,0 -9.746,3.142 -10.717,7.817 -1.507,7.255 3.093,10.747 3.093,10.747 0.107,0.081 0.148,0.224 0.098,0.349 -0.049,0.125 -0.176,0.202 -0.31,0.188 l -4.063,-0.425 c -0.073,-0.007 -0.141,-0.042 -0.191,-0.096 -3.739,-4.105 -2.754,-10.057 -2.727,-10.214 z m 12.848,24.353 c -0.541,-0.795 -2.483,-2.869 -6.384,-2.381 -0.197,0.025 -1.268,0.222 -1.731,1.092 -0.198,0.373 -0.277,0.87 -0.138,1.526 0.213,1.006 1.355,1.503 2.516,1.459 1.602,-0.06 3.557,-0.659 5.737,-1.696 z"
   style="fill:#ffffff;fill-opacity:1"
   id="path2" />
                </g>
            </g>
        </g>
    </g>
</svg>
